<?xml version="1.0" encoding="UTF-8" standalone="no"?>
<svg
   xmlns:dc="http://purl.org/dc/elements/1.1/"
   xmlns:cc="http://creativecommons.org/ns#"
   xmlns:rdf="http://www.w3.org/1999/02/22-rdf-syntax-ns#"
   xmlns:svg="http://www.w3.org/2000/svg"
   xmlns="http://www.w3.org/2000/svg"
   xmlns:sodipodi="http://sodipodi.sourceforge.net/DTD/sodipodi-0.dtd"
   xmlns:inkscape="http://www.inkscape.org/namespaces/inkscape"
   viewBox="0 0 164.66 161.9"
   version="1.1"
   id="svg33"
   sodipodi:docname="liga-x.svg"
   inkscape:version="0.92.4 (5da689c313, 2019-01-14)">
  <metadata
     id="metadata37">
    <rdf:RDF>
      <cc:Work
         rdf:about="">
        <dc:format>image/svg+xml</dc:format>
        <dc:type
           rdf:resource="http://purl.org/dc/dcmitype/StillImage" />
        <dc:title>liga-x</dc:title>
      </cc:Work>
    </rdf:RDF>
  </metadata>
  <sodipodi:namedview
     pagecolor="#ffffff"
     bordercolor="#666666"
     borderopacity="1"
     objecttolerance="10"
     gridtolerance="10"
     guidetolerance="10"
     inkscape:pageopacity="0"
     inkscape:pageshadow="2"
     inkscape:window-width="1920"
     inkscape:window-height="1017"
     id="namedview35"
     showgrid="false"
     inkscape:zoom="11.904434"
     inkscape:cx="70.951114"
     inkscape:cy="52.342052"
     inkscape:window-x="1912"
     inkscape:window-y="-8"
     inkscape:window-maximized="1"
     inkscape:current-layer="svg33" />
  <defs
     id="defs4">
    <style
       id="style2">.cls-1{isolation:isolate;}.cls-2{fill:#dca3c6;}.cls-3{fill:#2d7a3c;}.cls-4,.cls-8{fill:#fff;}.cls-5{fill:#1f763c;}.cls-6{opacity:0.25;mix-blend-mode:overlay;}.cls-7{fill:#343435;}.cls-8{fill-rule:evenodd;}.cls-9{fill:none;stroke:#c2c3c9;stroke-miterlimit:10;stroke-width:0.25px;}</style>
  </defs>
  <title
     id="title6">liga-x</title>
  <g
     style="isolation:isolate;fill:#ffffff"
     id="STROKE-GREEN">
    <path
       class="cls-3"
       d="m 161.92,80.56 c 11.1,0 30,0.37 42.91,2.58 15.72,2.7 18.86,6.41 18.86,6.41 0,0 -4.84,85.23 -6.05,90 -4,16 -64.77,39.86 -64.77,39.86 0,0 -60.73,-23.82 -64.76,-39.86 -1.21,-4.8 -6,-90 -6,-90 0,0 3.13,-3.71 18.86,-6.41 12.88,-2.21 31.81,-2.58 42.91,-2.58 5.47,0 9,0.09 9,0.09 0,0 3.57,-0.09 9,-0.09 m 0,-6 c -4.93,0 -8.31,0.07 -9,0.09 -0.69,0.02 -4.11,-0.09 -9,-0.09 -13,0 -31.11,0.46 -43.93,2.67 C 83.76,80 78.84,84.06 77.48,85.67 l -1.55,1.83 0.14,2.39 c 1.46,25.79 5,86.32 6.22,91.15 1.36,5.45 6.69,14.46 37,29.83 15.76,8 30.76,13.91 31.39,14.15 l 2.19,0.86 2.19,-0.86 c 0.63,-0.24 15.64,-6.15 31.4,-14.15 30.31,-15.37 35.63,-24.38 37,-29.83 1.21,-4.83 4.75,-65.36 6.22,-91.15 l 0.14,-2.39 -1.55,-1.83 C 226.9,84.06 222,80 205.84,77.23 c -12.82,-2.21 -31,-2.67 -43.92,-2.67 z"
       transform="translate(-70.54,-69.05)"
       id="path10"
       inkscape:connector-curvature="0"
       style="fill:#ffffff" />
  </g>
  <g
     style="isolation:isolate;fill:#333333"
     id="STROKE-WHITE">
    <path
       class="cls-4"
       d="m 161.92,80.56 c 11.1,0 30,0.37 42.91,2.58 15.72,2.7 18.86,6.41 18.86,6.41 0,0 -4.84,85.23 -6.05,90 -4,16 -64.77,39.86 -64.77,39.86 0,0 -60.73,-23.82 -64.76,-39.86 -1.21,-4.8 -6,-90 -6,-90 0,0 3.13,-3.71 18.86,-6.41 12.88,-2.21 31.81,-2.58 42.9,-2.58 5.48,0 9.05,0.09 9.05,0.09 0,0 3.57,-0.09 9,-0.09 m 0,-3 c -5,0 -8.5,0.08 -9,0.09 -0.5,0.01 -4,-0.09 -9.05,-0.09 -10.51,0 -30.13,0.34 -43.41,2.63 -16,2.74 -20,6.66 -20.64,7.42 l -0.78,0.91 0.07,1.2 c 0.5,8.75 4.89,85.65 6.14,90.59 1.92,7.64 13.51,16.76 35.44,27.89 15.64,7.93 31,14 31.14,14 l 1.09,0.43 1.1,-0.43 c 0.15,-0.06 15.5,-6.1 31.13,-14 21.85,-11.13 33.48,-20.2 35.4,-27.89 1.24,-4.94 5.64,-81.84 6.13,-90.59 l 0.07,-1.2 -0.77,-0.91 c -0.64,-0.76 -4.65,-4.68 -20.64,-7.42 -13.29,-2.29 -32.91,-2.63 -43.42,-2.63 z"
       transform="translate(-70.54,-69.05)"
       id="path13"
       inkscape:connector-curvature="0"
       style="fill:#333333" />
  </g>
  <g
     style="isolation:isolate;fill:#ffffff"
     id="BG-GREEN">
    <path
       class="cls-5"
       d="m 204.83,83.14 c -19.24,-3.3 -52,-2.49 -52,-2.49 0,0 -32.71,-0.81 -51.95,2.49 -15.73,2.7 -18.86,6.41 -18.86,6.41 0,0 4.84,85.23 6,90 4,16 64.76,39.86 64.76,39.86 0,0 60.74,-23.82 64.77,-39.86 1.21,-4.8 6.05,-90 6.05,-90 0,0 -3.05,-3.71 -18.77,-6.41 z"
       transform="translate(-70.54,-69.05)"
       id="path16"
       inkscape:connector-curvature="0"
       style="fill:#ffffff" />
  </g>
  <g
     id="SHADOW"
     class="cls-6"
     style="opacity:0.25;isolation:isolate;mix-blend-mode:overlay">
    <path
       class="cls-7"
       d="m 204.83,83.14 c -19.24,-3.3 -52,-2.49 -52,-2.49 h -0.35 V 219.3 l 0.35,0.14 c 0,0 60.74,-23.82 64.77,-39.86 1.21,-4.8 6.05,-90 6.05,-90 0,0 -3.1,-3.74 -18.82,-6.44 z"
       transform="translate(-70.54,-69.05)"
       id="path19"
       inkscape:connector-curvature="0"
       style="fill:#343435" />
  </g>
  <g
     style="isolation:isolate;fill:#333333"
     id="LIGA">
    <path
       class="cls-8"
       d="m 126.61,179.52 h -2.14 v 10.67 h 10.68 v -2.13 h -8.54 z m 14.09,2.13 h 2.13 v 6.41 h -2.13 v 2.13 h 6.4 v -2.13 H 145 v -6.41 h 2.13 v -2.13 h -6.4 z m 12,8.54 h 10.67 v -6.4 h -6.4 v 2.13 h 4.27 v 2.14 h -6.41 v -6.41 h 8.54 v -2.13 h -10.71 z m 16.22,-10.67 v 10.67 H 171 v -4.27 h 6.4 v 4.27 h 2.14 v -10.67 z m 8.54,4.27 H 171 v -2.14 h 6.4 z"
       transform="translate(-70.54,-69.05)"
       id="path22"
       inkscape:connector-curvature="0"
       style="fill:#333333;fill-rule:evenodd" />
  </g>
  <g
     style="isolation:isolate;fill:#333333"
     id="X">
    <path
       class="cls-4"
       d="m 215.86,99.87 a 39,39 0 0 0 0.36,-6.05 c -3.06,-2.23 -13.53,-3.56 -13.53,-3.56 a 71.15,71.15 0 0 0 -21,1.07 c -13.75,2.94 -28.83,11.74 -28.83,11.74 0,0 -15.08,-8.8 -28.82,-11.74 a 71.22,71.22 0 0 0 -21,-1.07 94.69,94.69 0 0 0 -13.52,2.49 c 0,5.23 0.71,7.12 0.71,7.12 a 48.48,48.48 0 0 1 14.59,5.34 c 11.25,6.18 22.78,16.37 22.78,16.37 0,0 -12.24,12.61 -22.78,26 -9.31,11.81 -11.74,15.66 -11.74,15.66 -0.06,0.26 0.26,11.16 1.06,14.24 0.8,3.08 6,8.18 6,8.18 0,0 6.86,-8.15 20.7,-20.66 a 320.83,320.83 0 0 1 32,-24.91 320.83,320.83 0 0 1 32,24.91 c 13.82,12.52 20.64,20.64 20.64,20.64 0,0 5.25,-5.14 6.05,-8.18 0.8,-3.04 1.13,-14 1.07,-14.24 0,0 -2.43,-3.85 -11.75,-15.66 -10.54,-13.36 -22.77,-26 -22.77,-26 0,0 11.52,-10.19 22.77,-16.37 a 48.66,48.66 0 0 1 15.01,-5.32 z"
       transform="translate(-70.54,-69.05)"
       id="path25"
       inkscape:connector-curvature="0"
       style="fill:#333333" />
  </g>
</svg>
