<?xml version="1.0" standalone="no"?>
<!DOCTYPE svg PUBLIC "-//W3C//DTD SVG 20010904//EN"
 "http://www.w3.org/TR/2001/REC-SVG-20010904/DTD/svg10.dtd">
<svg version="1.0" xmlns="http://www.w3.org/2000/svg"
 width="800.000000pt" height="800.000000pt" viewBox="0 0 800.000000 800.000000"
 preserveAspectRatio="xMidYMid meet">
<metadata>
Created by potrace 1.11, written by Peter Selinger 2001-2013
</metadata>
<g transform="translate(0.000000,800.000000) scale(0.100000,-0.100000)"
fill="#000000" stroke="none">
<path d="M3025 7754 c-1324 -29 -2152 -154 -2630 -397 -133 -68 -235 -163
-235 -220 0 -66 103 -1801 165 -2772 86 -1345 128 -1861 161 -1974 103 -357
580 -760 1484 -1255 225 -124 709 -365 985 -492 380 -174 1018 -444 1049 -444
9 0 71 22 138 49 765 305 1714 764 2268 1095 180 108 443 286 575 388 220 171
416 383 492 533 64 124 76 199 118 745 54 707 234 3575 257 4095 2 56 0 64
-32 104 -74 92 -255 190 -500 269 -448 145 -987 220 -1890 263 -210 10 -2079
20 -2405 13z m2425 -113 c792 -39 1289 -102 1703 -216 289 -79 545 -202 588
-281 11 -22 7 -140 -34 -842 -114 -1940 -211 -3380 -252 -3745 -23 -195 -81
-314 -241 -486 -423 -455 -1493 -1058 -2964 -1670 l-242 -101 -218 89 c-1375
566 -2477 1176 -2929 1620 -187 184 -271 325 -296 496 -40 277 -144 1821 -281
4175 l-26 455 51 47 c55 50 222 137 351 181 490 169 1149 256 2180 287 371 11
2338 4 2610 -9z"/>
<path d="M2925 7554 c-1052 -32 -1684 -109 -2158 -260 -155 -50 -323 -126
-375 -171 l-33 -28 46 -780 c119 -2029 212 -3413 250 -3735 7 -63 23 -141 35
-173 80 -213 373 -485 845 -787 347 -222 1047 -589 1590 -835 233 -105 742
-324 837 -360 l47 -17 128 52 c998 410 1875 851 2438 1225 497 331 740 589
774 821 37 247 143 1803 263 3861 l42 731 -24 21 c-77 64 -306 159 -521 215
-421 111 -825 162 -1624 207 -172 10 -2314 20 -2560 13z m-715 -500 c479 -54
1039 -248 1638 -568 l161 -86 73 42 c124 70 505 253 671 322 472 196 829 282
1281 308 398 22 900 -45 1155 -155 l76 -33 -2 -109 c-2 -61 -5 -134 -8 -162
-6 -46 -9 -53 -28 -53 -35 0 -282 -68 -386 -106 -212 -78 -489 -228 -754 -407
-214 -144 -540 -393 -715 -544 l-62 -55 76 -81 c511 -552 811 -898 1145 -1322
158 -200 448 -586 507 -673 l42 -61 0 -120 c0 -150 -17 -396 -35 -526 -23
-153 -85 -261 -254 -436 l-76 -79 -75 87 c-41 48 -183 197 -315 331 -597 607
-1115 1054 -1835 1583 -213 157 -456 328 -476 336 -40 15 -992 -700 -1425
-1073 -376 -322 -967 -893 -1199 -1157 l-95 -108 -68 73 c-96 102 -185 222
-219 294 -21 45 -33 93 -43 175 -17 134 -35 408 -35 529 0 101 -10 84 230 405
454 607 916 1156 1438 1709 56 60 101 112 100 117 -5 14 -272 230 -452 366
-343 259 -689 474 -932 579 -149 65 -337 128 -449 151 l-84 17 -12 51 c-7 27
-13 111 -13 185 l-1 135 90 23 c180 45 566 104 770 116 114 7 461 -5 595 -20z
m442 -4811 l3 -218 218 -3 217 -2 0 -55 0 -55 -272 2 -273 3 -3 273 -2 272 55
0 55 0 2 -217z m1058 162 l0 -55 -55 0 -55 0 0 -165 0 -165 55 0 55 0 0 -55 0
-55 -165 0 -165 0 0 55 0 55 55 0 55 0 0 165 0 165 -55 0 -55 0 0 55 0 55 165
0 165 0 0 -55z m838 3 l-3 -53 -217 -3 -218 -2 0 -165 0 -165 163 2 162 3 3
53 3 52 -110 0 -111 0 0 55 0 55 165 0 165 0 -2 -162 -3 -163 -272 -3 -273 -2
0 275 0 275 276 0 275 0 -3 -52z m832 -224 l0 -275 -52 3 -53 3 -3 108 -3 107
-164 0 -165 0 0 -111 0 -110 -52 3 -53 3 -3 273 -2 272 275 0 275 0 0 -276z"/>
<path d="M4940 2295 l0 -55 165 0 165 0 0 55 0 55 -165 0 -165 0 0 -55z"/>
</g>
</svg>
